{"accessors" : [{"bufferView" : 0, "byteOffset" : 0, "componentType" : 5123, "count" : 7578, "type" : "SCALAR", "max" : [4917], "min" : [0]}, {"bufferView" : 1, "byteOffset" : 0, "componentType" : 5126, "count" : 4918, "type" : "VEC3", "max" : [2.091134786605835, 1.3013598918914795, 0.9840434789657593], "min" : [-1.8678845167160034, 0.22120840847492218, -0.984043538570404], "name" : "POSITION"}, {"bufferView" : 1, "byteOffset" : 12, "componentType" : 5126, "count" : 4918, "type" : "VEC3", "max" : [1.0000044107437134, 1.0000044107437134, 1.0000044107437134], "min" : [-1.0000044107437134, -1.0000044107437134, -1.0000044107437134], "name" : "NORMAL"}, {"bufferView" : 1, "byteOffset" : 24, "componentType" : 5126, "count" : 4918, "type" : "VEC2", "max" : [0.9211543202400208, 0.9807448387145996], "min" : [0.009955093264579773, 0.031119108200073242], "name" : "TEXCOORD_0"}, {"bufferView" : 0, "byteOffset" : 15156, "componentType" : 5123, "count" : 954, "type" : "SCALAR", "max" : [639], "min" : [0]}, {"bufferView" : 2, "byteOffset" : 0, "componentType" : 5126, "count" : 640, "type" : "VEC3", "max" : [-0.9234835505485535, 0.6109094619750977, 0.8641424179077148], "min" : [-1.5343929529190063, 9.282603130600364E-09, 0.5183215737342834], "name" : "POSITION"}, {"bufferView" : 2, "byteOffset" : 12, "componentType" : 5126, "count" : 640, "type" : "VEC3", "max" : [1.0000044107437134, 1.0000044107437134, 1.0000044107437134], "min" : [-1.0000044107437134, -1.0000044107437134, -1.0000044107437134], "name" : "NORMAL"}, {"bufferView" : 2, "byteOffset" : 24, "componentType" : 5126, "count" : 640, "type" : "VEC2", "max" : [0.938040018081665, 0.8847312331199646], "min" : [0.02517678588628769, 0.6737756729125977], "name" : "TEXCOORD_0"}, {"bufferView" : 0, "byteOffset" : 17064, "componentType" : 5123, "count" : 954, "type" : "SCALAR", "max" : [639], "min" : [0]}, {"bufferView" : 3, "byteOffset" : 0, "componentType" : 5126, "count" : 640, "type" : "VEC3", "max" : [1.5343929529190063, 0.6109094619750977, 0.8641421794891357], "min" : [0.9234834909439087, 9.282596025173007E-09, 0.5183213353157043], "name" : "POSITION"}, {"bufferView" : 3, "byteOffset" : 12, "componentType" : 5126, "count" : 640, "type" : "VEC3", "max" : [1.0000044107437134, 1.0000044107437134, 1.0000044107437134], "min" : [-1.0000044107437134, -1.0000044107437134, -1.0000044107437134], "name" : "NORMAL"}, {"bufferView" : 3, "byteOffset" : 24, "componentType" : 5126, "count" : 640, "type" : "VEC2", "max" : [0.9425463676452637, 0.892879843711853], "min" : [0.031152553856372833, 0.6737756729125977], "name" : "TEXCOORD_0"}, {"bufferView" : 0, "byteOffset" : 18972, "componentType" : 5123, "count" : 954, "type" : "SCALAR", "max" : [639], "min" : [0]}, {"bufferView" : 4, "byteOffset" : 0, "componentType" : 5126, "count" : 640, "type" : "VEC3", "max" : [1.5343927145004272, 0.6109094619750977, -0.5183218717575073], "min" : [0.92348313331604, -6.439150013193284E-08, -0.8641428351402283], "name" : "POSITION"}, {"bufferView" : 4, "byteOffset" : 12, "componentType" : 5126, "count" : 640, "type" : "VEC3", "max" : [1.0000044107437134, 1.0000044107437134, 1.0000044107437134], "min" : [-1.0000044107437134, -1.0000044107437134, -1.0000044107437134], "name" : "NORMAL"}, {"bufferView" : 4, "byteOffset" : 24, "componentType" : 5126, "count" : 640, "type" : "VEC2", "max" : [0.9425463676452637, 0.892879843711853], "min" : [0.031152553856372833, 0.6737756729125977], "name" : "TEXCOORD_0"}, {"bufferView" : 0, "byteOffset" : 20880, "componentType" : 5123, "count" : 954, "type" : "SCALAR", "max" : [639], "min" : [0]}, {"bufferView" : 5, "byteOffset" : 0, "componentType" : 5126, "count" : 640, "type" : "VEC3", "max" : [-0.9234839081764221, 0.6109094619750977, -0.5183209776878357], "min" : [-1.5343931913375854, -6.439146460479606E-08, -0.8641418814659119], "name" : "POSITION"}, {"bufferView" : 5, "byteOffset" : 12, "componentType" : 5126, "count" : 640, "type" : "VEC3", "max" : [1.0000044107437134, 1.0000044107437134, 1.0000044107437134], "min" : [-1.0000042915344238, -1.0000044107437134, -1.0000044107437134], "name" : "NORMAL"}, {"bufferView" : 5, "byteOffset" : 24, "componentType" : 5126, "count" : 640, "type" : "VEC2", "max" : [0.938040018081665, 0.8847312331199646], "min" : [0.02517678588628769, 0.6737756729125977], "name" : "TEXCOORD_0"}], "asset" : {"generator" : "Aspose.3D 25.11.0", "version" : "2.0"}, "buffers" : [{"uri" : "data:application/octet-stream;base64,", "byteLength" : 262108}], "bufferViews" : [{"buffer" : 0, "byteOffset" : 0, "byteLength" : 22788, "target" : 34963}, {"buffer" : 0, "byteOffset" : 22792, "byteLength" : 157376, "byteStride" : 32, "target" : 34962}, {"buffer" : 0, "byteOffset" : 180172, "byteLength" : 20480, "byteStride" : 32, "target" : 34962}, {"buffer" : 0, "byteOffset" : 200656, "byteLength" : 20480, "byteStride" : 32, "target" : 34962}, {"buffer" : 0, "byteOffset" : 221140, "byteLength" : 20480, "byteStride" : 32, "target" : 34962}, {"buffer" : 0, "byteOffset" : 241624, "byteLength" : 20480, "byteStride" : 32, "target" : 34962}], "materials" : [{"name" : "Material.car2", "pbrMetallicRoughness" : {"baseColorFactor" : [0.8, 0.8, 0.8, 1], "metallicFactor" : 1, "roughnessFactor" : 1}, "emissiveFactor" : [0, 0, 0], "alphaMode" : "OPAQUE", "doubleSided" : false}], "meshes" : [{"primitives" : [{"attributes" : {"POSITION" : 1, "NORMAL" : 2, "TEXCOORD_0" : 3}, "indices" : 0, "material" : 0, "mode" : 4}], "name" : "car2.017"}, {"primitives" : [{"attributes" : {"POSITION" : 5, "NORMAL" : 6, "TEXCOORD_0" : 7}, "indices" : 4, "material" : 0, "mode" : 4}], "name" : "car2.021"}, {"primitives" : [{"attributes" : {"POSITION" : 9, "NORMAL" : 10, "TEXCOORD_0" : 11}, "indices" : 8, "material" : 0, "mode" : 4}], "name" : "car2.020"}, {"primitives" : [{"attributes" : {"POSITION" : 13, "NORMAL" : 14, "TEXCOORD_0" : 15}, "indices" : 12, "material" : 0, "mode" : 4}], "name" : "car2.019"}, {"primitives" : [{"attributes" : {"POSITION" : 17, "NORMAL" : 18, "TEXCOORD_0" : 19}, "indices" : 16, "material" : 0, "mode" : 4}], "name" : "car2.018"}], "nodes" : [{"matrix" : [1, 0, 0, 0, 0, -1.6292067955264295E-07, -0.9999999999999867, 0, 0, 0.9999999999999867, -1.6292067955264295E-07, 0, 0, 0, 0, 1], "mesh" : 0, "name" : "car2"}, {"matrix" : [1, 0, 0, 0, 0, -1.6292067955264295E-07, -0.9999999999999867, 0, 0, 0.9999999999999867, -1.6292067955264295E-07, 0, 0, 0, 0, 1], "mesh" : 1, "name" : "whell.003"}, {"matrix" : [1, 0, 0, 0, 0, -1.6292067955264295E-07, -0.9999999999999867, 0, 0, 0.9999999999999867, -1.6292067955264295E-07, 0, 0, 0, 0, 1], "mesh" : 2, "name" : "whell.002"}, {"matrix" : [1, 0, 0, 0, 0, -1.6292067955264295E-07, -0.9999999999999867, 0, 0, 0.9999999999999867, -1.6292067955264295E-07, 0, 0, 0, 0, 1], "mesh" : 3, "name" : "whell.001"}, {"matrix" : [1, 0, 0, 0, 0, -1.6292067955264295E-07, -0.9999999999999867, 0, 0, 0.9999999999999867, -1.6292067955264295E-07, 0, 0, 0, 0, 1], "mesh" : 4, "name" : "whell"}], "scene" : 0, "scenes" : [{"nodes" : [0, 1, 2, 3, 4]}]}